<svg id="Capa_1" enable-background="new 0 0 512.08 512.08" height="512" viewBox="0 0 512.08 512.08" width="512" xmlns="http://www.w3.org/2000/svg"><g><path d="m442.996 404.554c-4.099-.622-7.916 2.204-8.533 6.301-7.389 49.11-50.48 86.145-100.234 86.145-55.896 0-101.37-45.475-101.37-101.37s45.475-101.37 101.37-101.37c49.752 0 92.844 37.035 100.234 86.146.616 4.097 4.446 6.919 8.532 6.3 4.096-.616 6.917-4.437 6.301-8.533-8.459-56.199-58.264-98.914-115.067-98.914-4.371 0-39.095.25-39.095.25v-16.199h23.562c4.143 0 7.5-3.358 7.5-7.5v-31.06c0-4.142-3.357-7.5-7.5-7.5h-82.084l50.292-41.792c9.809-8.154 11.157-22.777 3.002-32.602-10.037-10.002-20.904-11.003-32.601-3.003l-24.296 20.193v-152.546c0-4.142-3.358-7.5-7.5-7.5h-31.06c-4.142 0-7.5 3.358-7.5 7.5v51.56c0 4.142 3.358 7.5 7.5 7.5s7.5-3.358 7.5-7.5v-44.06h16.06v161.03c.14 7.01 5.64 11.01 12.294 5.768l36.592-30.412c6.635-5.516 20.104 4.485 10.421 12.536l-62.13 51.63c-2.894 2.404-7.52 2.408-10.413 0l-62.133-51.633c-8.206-6.813 2.474-19.127 10.426-12.531l36.59 30.41c5.244 4.492 12.244 2.742 12.294-5.768v-84.28c0-4.142-3.358-7.5-7.5-7.5s-7.5 3.358-7.5 7.5v68.295l-24.302-20.198c-11.279-8.007-22.144-7.004-32.594 3.007-8.007 11.698-7.006 22.566 3.003 32.604l50.29 41.792h-82.087c-4.142 0-7.5 3.358-7.5 7.5v23.632h-23.561c-4.142 0-7.5 3.358-7.5 7.5v31.062c0 4.142 3.358 7.5 7.5 7.5h23.56v16.136h-23.56c-4.142 0-7.5 3.358-7.5 7.5v31.06c0 4.142 3.358 7.5 7.5 7.5h23.56v16.1h-23.56c-4.142 0-7.5 3.358-7.5 7.5v31.07c0 4.142 3.358 7.5 7.5 7.5h23.56v16.06h-23.56c-4.142 0-7.5 3.358-7.5 7.5v31.06c0 4.142 3.358 7.5 7.5 7.5h23.56v23.65c0 4.142 3.358 7.5 7.5 7.5 0 0 228.811-.08 232.97-.08 56.807 0 106.609-42.712 115.067-98.914.617-4.096-2.204-7.916-6.3-8.532zm-334.236-172.304h202.436v16.062h-202.436zm-31.061 31.132h202.436v16.062h-202.436zm0 62.198h62.23c4.142 0 7.5-3.358 7.5-7.5s-3.358-7.5-7.5-7.5h-31.17v-16.07h167.931c-7.888 4.506-15.198 9.911-21.796 16.07h-82.285c-4.142 0-7.5 3.358-7.5 7.5s3.358 7.5 7.5 7.5h68.758c-3.818 5.049-7.232 10.419-10.199 16.06h-153.469zm146.887 31.06c-1.853 5.195-3.349 10.557-4.453 16.06h-111.374v-16.06zm-146.887 31.1h140.433c-.37 5.357-.364 10.713.018 16.07h-140.451zm31.06 31.07h111.422c1.117 5.504 2.627 10.866 4.493 16.06h-115.915zm-31.06 31.06h23.56 130.041c2.986 5.643 6.42 11.012 10.259 16.06h-163.86zm31.06 47.21v-16.06h146.5c6.667 6.17 14.054 11.57 22.021 16.06z"/><path d="m334.078 310.541c-46.955 0-85.156 38.201-85.156 85.156s38.201 85.156 85.156 85.156 85.155-38.201 85.155-85.156-38.2-85.156-85.155-85.156zm0 155.312c-38.684 0-70.156-31.472-70.156-70.156s31.473-70.156 70.156-70.156 70.155 31.472 70.155 70.156-31.472 70.156-70.155 70.156z"/><path d="m338.344 389.197h-8.531c-4.429 0-8.031-3.603-8.031-8.031s3.603-8.031 8.031-8.031h7.622c2.907 0 5.421 1.871 6.257 4.656 1.19 3.968 5.381 6.221 9.339 5.028 3.968-1.19 6.219-5.372 5.028-9.339-2.347-7.822-8.719-13.441-16.48-14.935v-9.287c0-4.142-3.357-7.5-7.5-7.5s-7.5 3.358-7.5 7.5v9.11c-11.173 1.578-19.797 11.198-19.797 22.799 0 12.7 10.332 23.031 23.031 23.031h8.531c4.429 0 8.031 3.603 8.031 8.031s-3.603 8.031-8.031 8.031h-9.622c-2.907 0-5.422-1.871-6.257-4.655-1.19-3.968-5.372-6.221-9.339-5.029-3.967 1.19-6.219 5.371-5.028 9.338 2.545 8.485 9.824 14.385 18.48 15.23v8.993c0 4.142 3.357 7.5 7.5 7.5s7.5-3.358 7.5-7.5v-9.109c11.173-1.578 19.797-11.198 19.797-22.8 0-12.7-10.332-23.031-23.031-23.031z"/></g></svg>